# xmcd CD database file
#
# Track frame offsets:
#	150
#	10607
#	32467
#	45719
#	63789
#	80962
#	95471
#	114933
#	132061
#	145322
#	159020
#	172938
#
# Disc length: 2594 seconds
#
# Revision: 1
# Processed by: cddbd v1.4PL0 Copyright (c) Steve Scherf et al.
# Submitted via: CDex 1.50Beta6
#
DISCID=860a200c
DTITLE=Heavy Load - Country- Folk- and Rockclassics
DYEAR=1995
DGENRE=Country
TTITLE0=Have Youe Ever Seen The Rain
TTITLE1=Everything I Do
TTITLE2=Cottonfields
TTITLE3=Me And Bobby McGee
TTITLE4=Lay Down Sally
TTITLE5=Heart Of Gold
TTITLE6=The Boxer
TTITLE7=Donna Donna
TTITLE8=Country Roads
TTITLE9=As Tears Go By
TTITLE10=Ring Of Fire
TTITLE11=Hotel California
EXTD=YEAR: 1995
EXTT0=
EXTT1=
EXTT2=
EXTT3=
EXTT4=
EXTT5=
EXTT6=
EXTT7=
EXTT8=
EXTT9=
EXTT10=
EXTT11=
PLAYORDER=
